<?xml version="1.0" encoding="UTF-8" standalone="no"?>
<svg
   aria-hidden="true"
   focusable="false"
   data-prefix="fas"
   data-icon="fire-smoke"
   role="img"
   viewBox="0 0 377.95275 377.95275"
   class="svg-inline--fa fa-fire-smoke fa-w-20 fa-3x"
   version="1.1"
   id="svg1284"
   sodipodi:docname="fire.svg"
   width="100mm"
   height="100mm"
   inkscape:version="1.1 (c4e8f9e, 2021-05-24)"
   xmlns:inkscape="http://www.inkscape.org/namespaces/inkscape"
   xmlns:sodipodi="http://sodipodi.sourceforge.net/DTD/sodipodi-0.dtd"
   xmlns="http://www.w3.org/2000/svg"
   xmlns:svg="http://www.w3.org/2000/svg">
  <defs
     id="defs1288" />
  <sodipodi:namedview
     id="namedview1286"
     pagecolor="#ffffff"
     bordercolor="#666666"
     borderopacity="1.0"
     inkscape:pageshadow="2"
     inkscape:pageopacity="0.0"
     inkscape:pagecheckerboard="0"
     showgrid="false"
     inkscape:zoom="1.0996094"
     inkscape:cx="47.744226"
     inkscape:cy="266.91296"
     inkscape:window-width="1296"
     inkscape:window-height="1003"
     inkscape:window-x="110"
     inkscape:window-y="123"
     inkscape:window-maximized="0"
     inkscape:current-layer="svg1284"
     units="mm"
     inkscape:document-units="mm" />
  <path
     fill="currentColor"
     d="m 311.81102,207.87402 c -21.90945,0 -41.16141,10.80709 -53.20866,27.22441 -11.51575,-27.1063 -38.32677,-46.12205 -69.62598,-46.12205 -31.29921,0 -58.11024,19.01575 -69.62599,46.12205 -12.04724,-16.41732 -31.299211,-27.22441 -53.20866,-27.22441 -36.555118,0 -66.1417320472441,29.58661 -66.1417320472441,66.14173 0,36.55512 29.5866140472441,66.14173 66.1417320472441,66.14173 h 245.66929 c 36.55512,0 66.14174,-29.58661 66.14174,-66.14173 0,-36.55512 -29.58662,-66.14173 -66.14174,-66.14173 z m -196.24015,-2.83465 c 5.72834,-7.08661 12.57874,-13.16929 20.01968,-18.30708 -2.77559,-6.8504 -4.37008,-14.58662 -4.37008,-23.20866 0,-17.59843 10.74803,-33.12992 32.12599,-59.70473 3.07086,3.66142 43.58267,57.22441 43.58267,57.22441 l 25.86615,-30.53149 c 1.8307,3.12992 3.48425,6.20078 4.96063,9.09448 7.32283,14.46851 8.20866,31.35827 3.01181,45.94489 8.09055,5.31496 15.41338,11.81102 21.55511,19.37007 7.97245,-5.72834 16.88977,-9.8622 26.27953,-12.57874 2.71654,-9.15354 4.25197,-18.83858 4.25197,-28.87795 0,-23.79921 -24.09449,-72.874016 -57.7559,-102.874016 -9.62599,8.622047 -18.36615,17.65748 -26.10237,26.811023 C 196.41732,70.688979 180.76772,53.681105 162.99213,37.795278 117.40157,78.484254 85.039368,131.57481 85.039368,163.58268 c 0,10.03937 1.535433,19.72441 4.251969,28.87795 9.389763,2.71654 18.307093,6.8504 26.279533,12.57874 z"
     class=""
     id="path1282"
     style="stroke-width:0.590551" />
</svg>
